<?xml version="1.0" encoding="UTF-8"?>
<svg version="1.1" xmlns="http://www.w3.org/2000/svg" width="448" height="449">
<path d="M0 0 C1.43266042 -0.0037424 2.8653188 -0.00834627 4.29797399 -0.01373065 C8.21226206 -0.02590335 12.1264643 -0.02570698 16.04076695 -0.02334189 C20.27135217 -0.02293227 24.5019104 -0.03398682 28.73248291 -0.04345703 C37.01298189 -0.06003695 45.29345238 -0.06556523 53.57396658 -0.06668179 C60.30891166 -0.06763377 67.04384739 -0.07175156 73.77878952 -0.07808304 C92.89612206 -0.09568789 112.0134322 -0.10492319 131.1307729 -0.10342209 C132.16038976 -0.10334218 133.19000661 -0.10326227 134.25082397 -0.10317993 C135.28170593 -0.10309817 136.31258789 -0.10301641 137.3747087 -0.10293217 C154.07280706 -0.10211967 170.77081514 -0.12125021 187.4688874 -0.14945666 C204.63643606 -0.17822606 221.80394074 -0.1919947 238.97151411 -0.19026911 C248.60087675 -0.18960657 258.23014477 -0.19503905 267.85948563 -0.21662521 C276.05966318 -0.23489053 284.2597032 -0.23914065 292.45989235 -0.22560637 C296.63814009 -0.21910338 300.8161244 -0.21886204 304.99434662 -0.23631287 C308.83025484 -0.25216817 312.6656935 -0.24905494 316.50159113 -0.2317446 C318.52333213 -0.22727655 320.54508845 -0.24223363 322.56677115 -0.25822389 C340.08002459 -0.1281017 355.52903225 4.61441811 368.40853882 16.86117554 C377.89523536 26.85058591 383.80469931 39.50821008 383.82791615 53.39051819 C383.83237399 54.62906178 383.83683183 55.86760536 383.84142476 57.14368057 C383.84133547 58.51525117 383.84114564 59.88682176 383.84086609 61.25839233 C383.84416668 62.71774773 383.84789266 64.17710221 383.85200757 65.63645554 C383.8620136 69.6476209 383.86574212 73.65877131 383.86839688 77.66994739 C383.8723041 81.99599005 383.88188218 86.32202091 383.89060974 90.64805603 C383.91036282 101.09625318 383.92043911 111.54445128 383.92933753 121.99266243 C383.93372252 126.91518339 383.9390888 131.83770328 383.9443264 136.76022339 C383.96133789 153.12790707 383.97583136 169.49559009 383.98307514 185.86328125 C383.98498498 190.10981243 383.98690532 194.3563436 383.98886108 198.60287476 C383.98934482 199.65830546 383.98982856 200.71373616 383.99032696 201.80114961 C383.99862466 218.89281214 384.02395755 235.98440462 384.05644176 253.07603657 C384.08953404 270.63100169 384.10752588 288.18593123 384.11071938 305.7409277 C384.11288252 315.59439882 384.12160239 325.44776781 384.14718056 335.3012085 C384.16891721 343.69408949 384.17692341 352.08684355 384.16721378 360.4797495 C384.1626776 364.75885708 384.16451533 369.0377029 384.18397522 373.31677437 C384.20166895 377.24153411 384.20055939 381.16584233 384.18507793 385.09060729 C384.18271122 386.50320214 384.18697635 387.91582877 384.19890658 389.32837522 C384.32469025 405.21773742 379.8919387 420.43507729 368.86557007 432.29086304 C353.31450432 446.44345165 336.82177061 449.5929143 316.22749329 449.52139282 C314.81414253 449.52370297 313.40079298 449.52688318 311.98744589 449.53084731 C308.14061322 449.53912785 304.29388091 449.53510106 300.44704807 449.52887487 C296.28408399 449.52432357 292.12113639 449.53134732 287.95817566 449.53683472 C279.81778768 449.54570168 271.67743671 449.54381883 263.53704732 449.53800943 C256.91846408 449.53348262 250.29989118 449.53288445 243.68130684 449.53505707 C242.26538559 449.53551677 242.26538559 449.53551677 240.82085987 449.53598575 C238.90293458 449.53662524 236.9850093 449.53727366 235.06708402 449.53793094 C217.10686451 449.54362625 199.14666545 449.53708872 181.1864493 449.5263302 C165.79196304 449.51739397 150.39750695 449.51894889 135.00302124 449.52816772 C117.10311355 449.53888197 99.20322376 449.54307853 81.30331331 449.5369432 C79.39296472 449.53630613 77.48261613 449.53567739 75.57226753 449.53505707 C74.16256404 449.53459424 74.16256404 449.53459424 72.7243817 449.53412206 C66.1169544 449.5323987 59.5095385 449.53530246 52.90211296 449.54001617 C44.84538466 449.54563778 36.7886953 449.54408164 28.73197144 449.53345469 C24.62515729 449.5282154 20.51840799 449.52611139 16.41159439 449.53275299 C12.64582934 449.53875074 8.88018869 449.53537485 5.11443479 449.52479789 C3.1207126 449.52153645 1.12698165 449.52800042 -0.86673123 449.53491235 C-19.46135637 449.45457734 -35.1456896 445.02139838 -48.93130493 432.14242554 C-61.28770081 419.22535551 -64.9385356 403.69333885 -64.80751038 386.2633667 C-64.81141344 384.80377622 -64.81706187 383.34418957 -64.82428128 381.88461173 C-64.83890948 377.91451607 -64.82893096 373.94482217 -64.81454456 369.97474003 C-64.80336616 365.67749231 -64.81539984 361.38029781 -64.8243866 357.08305359 C-64.83827388 348.68140581 -64.83079669 340.27990898 -64.81571101 331.87826847 C-64.79879764 322.08368243 -64.80206782 312.28913344 -64.80580509 302.49453731 C-64.81167525 285.01385507 -64.79754446 267.53324501 -64.77285767 250.05258179 C-64.74893204 233.10886938 -64.74185737 216.16525336 -64.75234985 199.2215271 C-64.76377035 180.74624837 -64.76567571 162.27101415 -64.75125176 143.79573596 C-64.749726 141.82417783 -64.74820564 139.85261969 -64.74669075 137.88106155 C-64.74593294 136.911149 -64.74517512 135.94123645 -64.74439434 134.94193261 C-64.73966084 128.12209276 -64.74149626 121.30227286 -64.74575615 114.48243332 C-64.75069298 106.16769197 -64.74465297 97.85304157 -64.72486185 89.538321 C-64.7150202 85.29983574 -64.70985084 81.06148868 -64.71775436 76.82299614 C-64.72485226 72.93693392 -64.71791148 69.05114957 -64.70015074 65.16512378 C-64.69613276 63.76561246 -64.69706111 62.36607548 -64.7036696 60.966574 C-64.77443814 44.56554047 -60.99387508 29.42536511 -49.44302368 17.17367554 C-34.64970373 3.97597876 -19.50964345 -0.04598553 0 0 Z " fill="#CB1583" transform="translate(64.30630493164063,-0.267425537109375)"/>
<path d="M0 0 C9.9 0 19.8 0 30 0 C30 7.26 30 14.52 30 22 C31.835625 20.659375 33.67125 19.31875 35.5625 17.9375 C55.36511248 4.02228745 77.73638085 -1.16822722 101.7578125 2.66015625 C116.22701968 5.48484818 129.64927572 11.60873201 141 21 C141.83917969 21.66515625 142.67835938 22.3303125 143.54296875 23.015625 C159.28851953 36.19794658 169.67892264 55.64738151 172 76 C173.91759626 99.68035703 169.61482857 122.02357929 154.5625 140.9375 C153.06279127 142.64380126 151.54261093 144.33238439 150 146 C149.31421875 146.77730469 148.6284375 147.55460938 147.921875 148.35546875 C138.8656738 158.09927041 127.43076586 164.52139783 115 169 C114.16339844 169.30679688 113.32679688 169.61359375 112.46484375 169.9296875 C91.73963741 177.19561961 67.78522774 174.501534 48.23828125 165.25390625 C41.87626829 161.99672972 36.80882481 158.3566186 31 154 C30.67 184.36 30.34 214.72 30 246 C20.1 246 10.2 246 0 246 C0 164.82 0 83.64 0 0 Z " fill="#FEFBFC" transform="translate(174,130)"/>
<path d="M0 0 C10.38405302 8.46699708 17.47546063 21.16963129 19.4375 34.39453125 C20.96798124 50.44332763 18.21059116 64.44074157 8.33984375 77.48828125 C-1.02881408 88.66397614 -13.81935981 97.17283414 -28.609375 98.5625 C-46.25210132 99.65832151 -59.89239272 95.70429989 -73.46875 84.09375 C-83.85139535 74.32950673 -90.65583372 61.76051951 -91.51953125 47.375 C-91.95074976 29.86520801 -87.24693856 16.23603406 -75.203125 3.1796875 C-53.3415497 -17.70433768 -23.63754149 -17.16150272 0 0 Z " fill="#C71885" transform="translate(296.28125,174.65625)"/>
<path d="M0 0 C4.49730077 4.42461712 6.67029577 8.2087914 7.0625 14.5625 C6.85940066 20.18158175 5.1365771 24.4149352 1.5625 28.75 C-4.05336433 33.32791275 -9.50741612 35.24077583 -16.734375 35.15625 C-22.17101348 34.33918295 -26.54062217 31.23375716 -29.8515625 26.8984375 C-33.2211074 21.2017249 -34.04834485 16.22495544 -33.4375 9.75 C-31.08237495 3.30439461 -26.58427594 -1.25157271 -20.4375 -4.25 C-13.13078152 -6.45900791 -5.80591452 -4.83291595 0 0 Z " fill="#FEFBFC" transform="translate(135.4375,147.25)"/>
<path d="M0 0 C4.92481795 3.80393645 7.61418051 7.01611441 8.43359375 13.26953125 C8.70551474 19.82035503 8.0332361 25.10021186 4.0625 30.4375 C-0.60721281 34.98747658 -5.27578712 36.73075148 -11.75 36.875 C-17.72875203 36.75013663 -21.57377931 35.55935164 -25.9375 31.4375 C-30.02293793 27.11232977 -31.26126608 23.23836565 -31.4375 17.3125 C-31.07928366 10.17503938 -29.22226156 6.44854141 -24 1.625 C-17.35614293 -4.17397351 -7.49058972 -4.66301612 0 0 Z " fill="#FEFCFD" transform="translate(132.9375,256.5625)"/>
</svg>
